<svg version="1.1" xmlns="http://www.w3.org/2000/svg" xmlns:xlink="http://www.w3.org/1999/xlink" width="1552" height="456" viewBox="0 0 1552 456"><path stroke="none" fill="black" fill-rule="evenodd" d="M171.0,435.5355512555782C157.525,435.71397390665703 142.9,435.45766715941573 138.5,434.9659807061531C134.1,434.47429425289056 125.96341526861254,433.147932609571 120.41870059691675,432.0185103876653C114.87398592522096,430.8890881657595 106.77398592522096,428.8086113961107 102.41870059691675,427.39522867733444C98.06341526861254,425.9818459585582 90.76014130391667,423.0810874004046 86.18920289759258,420.94909854810425C81.61826449126849,418.8171096958039 74.81766938422794,415.03798161567687 71.07676932639134,412.55103614782206C67.33586926855475,410.06409067996725 61.069183584646204,405.0610995226358 57.15080113992792,401.4332780204188C53.23241869520964,397.80545651820177 47.40692553033026,391.3608417822355 44.20526077352931,387.11191194049366C41.00359601672836,382.86298209875184 36.06003412081603,374.8621995837111 33.21956767150191,369.3323952404031C30.3791012221878,363.80259089709506 26.716924978327242,355.2781092821057 25.08139824070068,350.3891027626488C23.445871503074116,345.50009624319193 21.224576623614244,337.45 20.145187397456517,332.5C19.06579817129879,327.55 17.875577144674114,321.14652680681974 17.500251782735013,318.2700595707105C16.866789361750715,313.4152480283895 16.985761031134956,312.9726588320387 19.158921016877414,312.0996066624639C20.446514457594837,311.5823247990374 36.509531211883534,309.73032920410105 54.85451380418563,307.98406089593857C73.19949639648772,306.2377925877761 88.54968479806007,305.18949639648713 88.96604358545753,305.6545138041852C89.38240237285497,306.1195312118833 90.71048585117398,310.5213506108894 91.91734020394424,315.43633469086524C93.12419455671447,320.3513187708411 95.65099502179397,327.70444299290887 97.53245234856534,331.7766107399047C99.41390967533671,335.8487784869005 102.97819020303612,342.01820405649346 105.4530757434529,345.48644533900017C107.9279612838697,348.9546866215069 112.32597241721784,353.68609843149756 115.2264338175599,356.00069380564616C118.12689521790196,358.3152891797947 122.975,361.4603572403081 126.0,362.9897339401203C129.025,364.5191106399325 134.5431480360851,366.7091784921993 138.26255119130025,367.85655138960215C141.98195434651538,369.00392428700496 149.93396923481438,370.4750968588265 155.93369538752026,371.1258237714277C164.23315487944586,372.02597846415546 169.5519409872513,372.0342109108886 178.17114419622,371.1602430184304C184.402014888299,370.52844669168064 192.80238766886578,369.0962979102201 196.83863926414614,367.9776901707402C200.87489085942653,366.8590824312603 206.30286431695032,364.8667420835499 208.9008025030879,363.55026717582825C211.49874068922546,362.23379226810664 216.12431431479536,359.120200526465 219.1798550043543,356.6311744166247C222.23539569391323,354.14214830678435 226.3162481972538,349.71939610901825 228.24841612288884,346.8028361993666C230.18058404852388,343.88627628971494 232.5286973645065,339.25 233.46644571396135,336.5C234.40419406341618,333.75 235.1950950147811,328.5409650502408 235.2240033836611,324.9243667783129C235.254262382496,321.1387971617569 234.5166142722871,316.06073899165426 233.48551132545708,312.95637868528956C232.2208812121997,309.1489339118075 230.19629121353853,306.07751444806075 226.59722929828104,302.506458699497C223.51086833038102,299.4441143064098 218.51419820821005,296.00263724319996 213.93147045381727,293.7828652891658C209.76877920341676,291.76654972643456 201.1537255332204,288.5378528333942 194.7869067422698,286.60798330463166C188.42008795131918,284.6781137758691 171.1259262471014,279.96181239856526 156.35543628845252,276.12731357728967C141.58494632980364,272.29281475601414 125.07623084803953,267.7377643751962 119.66940188453228,266.0049793976942C114.26257292102503,264.2721944201923 105.03757292102503,260.8497774039332 99.16940188453228,258.39960825045176C93.30123084803952,255.94943909697037 84.9,251.8700872254245 80.5,249.33438186923874C76.1,246.79867651305298 69.70088916070085,242.5080141717756 66.27975369044634,239.79957666640013C62.858618220191815,237.09113916102464 57.62597328623626,232.09073724979464 54.65165383721176,228.68757241922236C51.67733438818726,225.28440758865005 47.131881919201135,219.22163761163492 44.55064835057592,215.21475024807756C41.969414781950704,211.20786288452024 38.61363990862087,204.90786288452026 37.0933708542874,201.21475024807756C35.57310179995393,197.5216376116349 33.46766510823921,191.125 32.41462265047691,187.0C30.89901501555783,181.06302998710387 30.51531275933755,176.16553602751173 30.573476322258173,163.5C30.633460567908184,150.43799715467674 31.03668383265096,146.08637057210413 32.769384587729014,139.80153412152552C33.93672215649598,135.56737788836455 36.46025060762801,128.708398287218 38.377225590244635,124.55935723008872C40.29420057286126,120.41031617295944 43.96986625885686,113.87487049735411 46.54537155912375,110.03614461763243C49.12087685939064,106.19741873791075 54.90530714780028,99.52638528572324 59.39966108892295,95.21162583499353C63.894015030045615,90.89686638426382 71.37254426485721,85.02724993982561 76.01861494405982,82.16803373624197C80.66468562326243,79.30881753265832 88.97366253870459,75.22088816830801 94.48300808948683,73.08374625990794C99.99235364026907,70.94660435150787 108.325,68.26382388707107 113.0,67.12201189449283C117.675,65.98019990191459 126.81054737141403,64.36064231959895 133.30121638092007,63.52299504490253C140.00463475884519,62.65789159760069 152.53183003389086,62.013474124125786 162.30121638092007,62.0311921057403C171.76054737141402,62.0483477638975 184.675,62.69184412624607 191.0,63.461184022070455C197.325,64.23052391789484 205.836806291124,65.57592975522779 209.91512509138664,66.45097477169924C213.99344389164926,67.32601978817068 221.28861686596528,69.36814039467441 226.12662058986663,70.98902056392976C230.96462431376798,72.6099007331851 238.202818022644,75.58653154033942 242.21149549848002,77.60375569093938C246.220172974316,79.62097984153934 252.01777207502016,82.97977903973971 255.09504905560038,85.06775390916243C258.1723260361806,87.15572877858516 263.2245007329042,91.18037307402487 266.3221039372084,94.01140789902846C269.4197071415126,96.84244272403204 274.1363816504841,101.93552655697937 276.80360284603404,105.32937197224476C279.47082404158397,108.72321738751015 283.26305034110425,114.2 285.23077240052356,117.5C287.1984944599429,120.8 289.995473891241,126.425 291.44628224785265,130.0C292.8970906044644,133.575 294.9779318120618,139.875 296.07037382029137,144.0C297.162815828521,148.125 298.5773623805456,155.8940274326865 299.2138106025682,161.26450540596997C300.05971537359574,168.4024198239904 300.07326196648,171.32673803352287 299.2641708528156,172.13582914718458C298.56377413877317,172.83622586122468 286.286323100994,173.76165200866316 265.8286762587836,174.65606570562352C248.04790431645264,175.43344572838038 231.74178036443197,175.9413500448338 229.59284525429328,175.7847419644089L225.68569050858656,175.5L223.33871807987114,166.63837934341612C222.04788324407767,161.76448798229498 219.38266995255117,154.71468209750452 217.4160218764789,150.97214404388174C215.44937380040668,147.22960599025896 211.73873102889664,142.03172239373694 209.17014905090105,139.42129160716613C206.41365029380438,136.6198823937119 201.6172486959471,133.30377050217533 197.46481791360014,131.32851893439465C193.59546776608022,129.48792475094115 187.0704677660802,127.23434290037781 182.96481791360014,126.32055926647612C177.79437439209227,125.1697873205653 170.88962419717134,124.66574747532144 160.5,124.68065006991574C150.6697094383286,124.69475037154405 143.08746892878,125.23830578288258 138.5,126.2577853552431C134.65,127.11337618637967 128.87192243565084,128.80290296663082 125.65982763477967,130.01228931135677C122.44773283390849,131.2216756560827 117.0994128977871,134.07615952023352 113.77467222117659,136.35558678724743C109.4909209550268,139.29250740480424 106.8527762640569,142.05457835883527 104.71990719991692,145.83569739164446C102.23825600517897,150.2351322763175 101.69940347680611,152.34230808513018 101.64902268973766,157.84435135685268C101.6034803610749,162.81799066616122 102.16237442321264,165.70397210417116 103.84371339542075,169.17715495570963C105.08439967906276,171.74007081962088 108.06642669745473,175.65004558149815 110.47044010295849,177.8659877598813C112.87445350846224,180.0819299382645 117.97842213903155,183.47476586584685 121.81259261533472,185.40562315450873C125.64676309163792,187.33648044317061 134.2916982531036,190.75749409277566 141.023559640814,193.00787570918658C147.7554210285244,195.2582573255975 163.84379027182257,199.77668422098665 176.77549129258767,203.0488243656069C189.7071923133528,206.32096451022716 205.7354480991972,210.62591500606146 212.39383748335302,212.61538102301648C219.05222686750886,214.60484703997153 229.6043648569779,218.20425867485784 235.84303301550642,220.61407354498607C242.08170117403495,223.0238884151143 250.85670117403495,226.9038712872256 255.34303301550642,229.23625770523338C259.8293648569779,231.56864412324117 266.96895288018703,236.0892190994387 271.2087841781934,239.28197987456127C275.4486154761998,242.47474064968387 281.2280516637127,247.65492458591225 284.05197570599984,250.7934997328466C286.875899748287,253.93207487978097 291.00036296543067,259.14514887041884 293.21744952187464,262.3781086009307C295.4345360783187,265.6110683314426 298.80848707762914,271.6325701313106 300.7151184092313,275.75922371174846C302.6217497408334,279.8858772921863 305.3102374105761,287.5907284217675 306.6895354531039,292.88111511081775C308.5877153885372,300.16170679891644 309.3270285814435,306.05723372404856 309.73080012270304,317.133161358757C310.06069157887276,326.1824714821153 309.8050614992208,334.95901506456636 309.0608904051975,340.133161358757C308.3990425348177,344.73492261144065 306.5501100960949,352.43169186135265 304.9521516524802,357.2370930252281C303.3541932088655,362.0424941891036 300.861198565396,368.3424941891036 299.4121635558813,371.2370930252281C297.9631285463666,374.13169186135264 294.3965019721309,380.1 291.4863267242465,384.5C288.5761514763621,388.9 282.9298883586186,395.78137719563244 278.9390753514832,399.7919493236277C274.9482623443478,403.8025214516229 267.8895245860999,409.6080245049407 263.2529914442656,412.6930672198895C258.6164583024313,415.77810993483826 250.77673500064557,420.0466462306093 245.83138410696398,422.17870343271403C240.88603321328242,424.31076063481873 233.15207638277278,427.12384222078896 228.6448133724981,428.4299958459811C224.1375503622234,429.7361494711733 214.83608703102624,431.79624392774264 207.9748948587266,433.0079835272463C197.9213584362823,434.7835158097133 190.74458663894725,435.27411292588783 171.0,435.5355512555782zM492.0,435.54841600734244C479.66082617749413,435.8018823847269 470.8358589502728,435.48898890092516 465.5,434.60884568291453C461.1,433.88307122085746 453.7988216350099,432.3240173095187 449.27515918891095,431.14428143549503C444.75149674281204,429.9645455614713 437.6605010342975,427.65272770586694 433.5173909477677,426.00690842304084C429.3742808612379,424.3610891402147 422.5004592262279,421.25270513309306 418.24223175885675,419.099388407215C413.9840042914855,416.94607168133683 407.35,412.951898216877 403.5,410.2234473750819C399.65,407.4949965332868 393.19473751323636,401.9410364386136 389.1549722516363,397.8813138313636C385.11520699003626,393.8215912241136 378.7198508545695,385.8440704590249 374.9430697283767,380.1534899089442C370.77745607778184,373.8770446432049 366.5180089699023,365.8128444264462 364.1151310159837,359.6534899089442C361.93654585036023,354.0690704590249 359.25914563526806,345.9 358.16535276022324,341.5C357.07155988517843,337.1 355.574394792519,330.125 354.83831922098,326.0C353.9999412228788,321.3016926849825 353.5015780533194,310.65526048204885 353.5042243747713,297.5C353.50759207359164,280.7586645231828 353.88506377374813,274.7817003154031 355.3655838831652,268.0268523312642C356.3870082066575,263.36662111345953 358.78005126442673,255.07960429614488 360.68345734487445,249.61125940389832C362.5868634253221,244.14291451165172 365.96907878487445,236.03083096258283 368.199491477213,231.58440707263406C370.42990416955143,227.13798318268533 374.9128760099676,219.61179466491438 378.1616511225822,214.85954369980976C381.41042623519684,210.1072927347051 388.0839136043321,202.34823206808178 392.99162305399386,197.61718666286902C397.8993325036556,192.88614125765622 405.4053508593244,186.73658502411558 409.67166384436894,183.95150614388982C413.9379768294135,181.16642726366405 420.5946623219487,177.39269150212155 424.46429827222494,175.56542667379543C428.3339342225012,173.7381618454693 434.76984861766016,171.0704466698652 438.76633026146703,169.63717072800856C442.76281190527385,168.20389478615192 450.63781190527385,166.0289347722631 456.26633026146703,164.80392625270014C464.9878021476747,162.90575755400917 469.6031053092577,162.57147758505172 487.5,162.54171512916432C504.06904436490305,162.51416088243445 510.2670540264434,162.88707771827538 516.8747474836769,164.30911119393855C521.480858599699,165.3003866279461 528.7990612573021,167.23273766370642 533.137420056128,168.60322460673927C537.4757788549539,169.97371154977213 544.0571424872994,172.45385472470855 547.7626725724513,174.1146538843758C551.468202657603,175.77545304404305 558.9346330947949,180.0848140507739 564.3547402106553,183.69101167711108C569.7748473265157,187.29720930344826 578.1521575167649,194.129494341418 582.9709850778758,198.87386731704387C587.7898126389866,203.61824029266975 593.8615332144434,210.4215749421999 596.4636974677796,213.99238876044421C599.065861721116,217.5632025786885 602.9102303836148,223.42182003327738 605.0067389399994,227.0115386595306C607.1032474963839,230.60125728578382 610.4362576585444,237.44621230171592 612.413428189245,242.2225498060464C614.3905987199457,246.99888731037686 617.1065851578007,255.4426592846315 618.4489536067008,260.9864875266122C619.791322055601,266.530315768593 621.4218185956969,276.563785810461 622.0722792513586,283.2830876196523C622.7784583478889,290.57796462662685 622.9801051218784,300.1261905638879 622.5727837749419,306.9826002835241C622.1976006072508,313.29803043946237 621.0153591122959,323.000764252374 619.9455804528196,328.5442309788832C618.8758017933434,334.08769770539243 616.7143602307725,342.4205275778066 615.14237698044,347.0616306953591C613.5703937301074,351.7027338129116 610.2369784872677,359.55 607.7347875519074,364.5C605.2325966165471,369.45 600.8123788346314,376.875 597.9120813698726,381.0C595.0117839051137,385.125 588.3325802704002,392.7897330038942 583.0694066260646,398.0327400086537C577.8062329817291,403.2757470134132 570.5492645134162,409.64906978600766 566.9428100298139,412.19567950330804C563.3363555462116,414.74228922060837 557.4863555462116,418.4091953192108 553.9428100298139,420.34435972242454C550.3992645134163,422.27952412563826 543.9,425.28842867708187 539.5,427.0308142811881C535.1,428.77319988529433 526.775,431.31694997296813 521.0,432.68359225379663C512.3135023515583,434.73923467088366 507.304781571064,435.23403130077463 492.0,435.54841600734244zM759.0,435.8966129693539C752.675,435.85420101551944 744.35,435.23776633212657 740.5,434.5267581173697C736.65,433.81574990261277 730.614719222323,432.25206216095665 727.0882649384953,431.051896469245C723.5618106546677,429.85173077753325 718.3868106546678,427.7203072174515 715.5882649384953,426.31539966906325C712.7897192223229,424.9104921206751 707.7307127419652,421.79789161820776 704.3460283154783,419.3985096635803C700.9613438889913,416.99912770895287 695.9070393739304,412.4722650044196 693.1142405042317,409.3388147646175C690.321441634533,406.2053645248154 686.2524248318578,400.21256001613324 684.0719809427312,396.02147141199055C681.8915370536047,391.8303828078478 679.0133921154656,384.5985154930006 677.6761033024222,379.9506551567746C676.3388144893789,375.30279482054857 674.627118550089,367.45 673.8723345484445,362.5C672.7835754698622,355.3597354643972 672.5,334.2827335345622 672.5,260.5L672.5,167.5L707.5,167.5L742.5,167.5L743.1106885781269,250.0C743.5036913689634,303.0920855658463 744.1438112726048,336.1839463572067 744.90645999091,342.8348224557053C745.5582555499708,348.5189748063432 747.0440658816825,355.71897480634317 748.208260728047,358.8348224557053C749.7268275532151,362.89911022280484 752.0452130887708,366.220234458243 756.4124893152639,370.5875106847361C760.7131092791038,374.888130648576 764.1157615044758,377.2787049556221 768.0045142422299,378.73162742708496C771.0319970754564,379.86276075877197 776.4319970754564,381.09442013057867 780.0045142422299,381.46864825332204C783.5786128452633,381.84304203459004 789.6482957311845,381.65924281236903 793.5,381.0599844347351C797.9185506846295,380.3725345865725 803.5778308684806,378.4657481405174 808.8460155313071,375.8894373924547C814.5396423840436,373.1050718101948 818.9888842241404,370.0028741061769 822.8460155313071,366.1280512019241C825.9557069890882,363.0040964474203 829.7279313740949,358.16648640305147 831.2287363868775,355.37780665888226C832.72954139966,352.5891269147131 834.6196250142244,347.42579688475905 835.4289221970206,343.903739925651C836.2382193798168,340.38168296654294 837.3681451741834,332.1 837.9398684067241,325.5C838.5364946090949,318.61251894006887 838.9837608531946,282.96624216920674 838.9896825965809,241.83178746823702C838.9953571684614,202.41427057576738 839.2731449618827,169.4517705757674 839.6069888041839,168.58178746823702C840.1443820044988,167.1813632364971 844.2013380639333,167.0 874.9903574402231,167.0L909.7667372720783,167.0L910.3697139527467,169.25C910.7013511271143,170.4875 910.972690633415,228.42499999999998 910.9726906334151,298.0C910.9726906334153,367.57500000000005 910.6997612548115,425.51857968102547 910.3661809031846,426.7635104022788L909.7596711729541,429.02702080455765L877.129835586477,428.7635104022788L844.5,428.5L844.0,411.33832002128497L843.5,394.17664004257L839.0429170240548,399.33832002128497C836.5915213872848,402.17724400957826 831.7716284859127,406.975 828.3320439098945,410.0C824.8924593338764,413.025 818.2009255161394,417.8431812362787 813.4619687593678,420.7070694139527C808.7230120025962,423.5709575916266 801.1679049039682,427.3372575173021 796.6728418735279,429.0766248043426C792.1777788430876,430.8159920913831 784.45,433.07939911795944 779.5,434.1064181967345C773.5330599319908,435.34443057890684 766.624423420234,435.9477381383836 759.0,435.8966129693539zM1379.5,435.61175075934557C1368.4468366152732,435.90246143990396 1363.7108491978697,435.5844788447237 1357.0,434.10106085226016C1352.325,433.0676627069154 1346.13830073975,431.2790522723539 1343.251779421667,430.12637099767903C1340.3652581035835,428.97368972300416 1335.3974726453444,426.7150387347499 1332.2122561811352,425.1071465793362C1329.0270397169259,423.4992544239225 1322.8387389771758,419.52244965606974 1318.4604767594683,416.2698026507745C1314.0822145417608,413.01715564547925 1307.2522549802627,406.8710338231213 1303.2827888450283,402.61175415664565C1299.313322709794,398.35247449017 1294.00945279423,391.7747559101773 1291.496411254886,387.99460175666184C1288.983369715542,384.2144476031464 1285.1752709367718,377.3817355087321 1283.033969524285,372.81079710240783C1280.8926681117987,368.2398586960835 1277.9966462634031,360.9936842131226 1276.5983654167394,356.7081871402725C1275.2000845700754,352.4226900674224 1273.138736579131,344.1630338353058 1272.0175921035293,338.35339551334675C1270.8964476279275,332.5437571913877 1269.4643618437744,321.1253894981695 1268.8351792498556,312.97924508397296C1267.9767228205972,301.86464955379296 1267.9765868808574,294.34100049296165 1268.8346345764207,282.8340367108987C1269.46351759995,274.40031651990444 1270.6741160897843,263.5572100409825 1271.5248534427192,258.7382445355167C1272.3755907956538,253.91927903005083 1274.2083563619874,246.04427903005083 1275.5976658123493,241.23824453551669C1276.9869752627112,236.4322100409825 1280.107227239141,228.30601549298243 1282.5315590933042,223.1800344288498C1284.9558909474672,218.05405336471722 1288.9484903691925,210.85405336471723 1291.4040022526933,207.1800344288498C1293.8595141361943,203.5060154929824 1298.9353668211122,197.4024455631899 1302.683674885844,193.61654569597755C1306.4319829505762,189.8306458287652 1312.0532478785487,184.7674737745874 1315.175374725783,182.36505224224908C1318.2975015730174,179.96263070991077 1324.198642892033,176.19183997519164 1328.2890221013731,173.9855172762066C1332.3794013107133,171.77919457722155 1339.0502082871799,168.8403648774902 1343.1130376046322,167.45478461013698C1347.1758669220844,166.06920434278376 1354.2714456379333,164.275049514313 1358.8809903065182,163.46777388020195C1363.4905349751032,162.6604982460909 1372.2655349751033,162.00591173714497 1378.3809903065182,162.0131371936554C1385.2768768980195,162.02128473557462 1392.9250370188192,162.7331908653927 1398.517738506113,163.8875062250918C1403.477494684475,164.9111837358714 1411.033182596473,167.20483655915345 1415.3081560883306,168.98451249905196C1419.5831295801881,170.76418843895047 1426.339058907869,174.34727812567945 1430.3213323720656,176.94693402511635C1434.3036058362625,179.54658992455325 1441.032026688345,184.7001042378924 1445.2733787100267,188.39918805475887L1452.9849278403572,195.1247949945161L1453.2424639201786,132.31239749725805L1453.5,69.5L1488.5,69.5L1523.5,69.5L1523.5,249.0L1523.5,428.5L1491.0,428.5L1458.5,428.5L1458.2258210415253,411.75C1458.075022614364,402.5375 1457.7467904270181,395.0 1457.4964161807566,395.0C1457.2460419344952,395.0 1455.1194224658088,397.11586341892075 1452.7705951392315,399.7019187087128C1450.4217678126543,402.28797399850487 1446.088870362979,406.67547399850486 1443.1419341399533,409.4519187087128C1440.1949979169278,412.22836341892076 1435.6949979169278,416.0016267410262 1433.1419341399533,417.83694831339164C1430.588870362979,419.67226988575703 1424.5744824450128,423.1582679833959 1419.776627655584,425.5836107525891C1414.978772866155,428.0089535217823 1407.103772866155,431.1746221439711 1402.276627655584,432.6184299130086C1395.0727618362346,434.7731190684752 1390.9912156956693,435.3095188082692 1379.5,435.61175075934557zM1013.7235992200425,428.76298813849434C986.4384304302288,428.96932564288244 978.8436356473973,428.75391427706734 978.4664308988928,427.76298813849434C978.202008751237,427.06834466232243 978.1013891022179,368.225 978.2428316788503,297.0L978.5,167.5L1011.0,167.5L1043.5,167.5L1043.774178958475,184.25C1043.924977385636,193.46250000000003 1044.38797712771,201.00000000000003 1044.8030672741943,201.0C1045.2181574206788,201.0 1048.4697768893652,198.0210640682901 1052.0288883157195,194.380142373978C1055.5879997420736,190.7392206796659 1062.0484220549693,185.09794236465123 1066.3853823443762,181.8439683406121C1070.7223426337832,178.58999431657296 1078.0935233735374,174.1031245050401 1082.7657839882745,171.8731465372058C1087.4380446030116,169.64316856937145 1095.5896225480424,166.68196734826708 1100.8804016438983,165.29269937919608C1108.1315305329574,163.38867713168517 1113.9469809768682,162.64588356251676 1124.5,162.27582460148673C1134.8055082076003,161.9144450141069 1140.9664171735976,162.2134781347787 1147.8463031915248,163.40898822036874C1152.9867699468634,164.30224136942297 1161.1660097575716,166.52555529072026 1166.0223916597656,168.3496858232516C1170.8787735619594,170.17381635578295 1177.4316068590776,173.20387226340506 1180.5842434311394,175.0831433957452C1183.7368800032013,176.96241452808533 1189.0223600802724,180.975 1192.3297547135194,184.0C1195.6371493467666,187.025 1200.439395152591,192.70292175147034 1203.001412059796,196.61760389215632C1205.7245953899255,200.7785433138647 1208.9495140381102,207.63267070021064 1210.764786548728,213.11760389215632C1212.4726256104354,218.27792175147036 1214.4617100713065,226.55 1215.1849742395525,231.5C1216.1985190424155,238.43667264941047 1216.5,262.05030788393503 1216.5,334.5L1216.5,428.5L1181.5,428.5L1146.5,428.5L1145.8707404250706,344.0C1145.5246476588595,297.525 1144.9433145713786,258.15 1144.5788891195575,256.5C1144.2144636677365,254.85 1143.4433028018568,250.81499737856237 1142.8651983064915,247.5333275079164C1142.2870938111264,244.25165763727043 1140.7027748041814,239.37356183150902 1139.3444894021698,236.69311460622438C1137.986204000158,234.01266738093975 1135.1227366002947,229.91872350951013 1132.981228513585,227.59546155860298C1130.839720426875,225.27219960769582 1126.675930718732,222.1511670428345 1123.7283624954891,220.6598336366889C1120.7807942722463,219.1685002305433 1115.4735893467075,217.4770523165654 1111.9345737720694,216.9010604945158C1108.3955581974312,216.32506867246622 1103.025,216.13605090201463 1100.0,216.48102100462341C1096.975,216.82599110723223 1092.025,217.79880280315157 1089.0,218.64282477333307C1085.975,219.4868467435146 1080.9667757795967,221.52126058325297 1077.8706128435483,223.16374441719609C1074.7744499075,224.8062282511392 1069.7457176061641,228.6455867416617 1066.6956521739135,231.69565217391275C1063.6455867416626,234.7457176061638 1059.8041978772092,239.77444990749976 1058.159232475128,242.87061284354823C1056.5142670730468,245.9667757795967 1054.4727377862605,251.2 1053.622500726714,254.5C1052.7722636671672,257.8 1051.5439344052954,264.55 1050.8928801447764,269.5C1050.126916797076,275.3236598714417 1049.4957753376589,304.9695010713194 1049.1045725628255,353.5L1048.5,428.5L1013.7235992200425,428.76298813849434zM1396.0,379.91470813982005C1397.925,379.955247433782 1402.2,379.54971787514376 1405.5,379.01353134284625C1408.8,378.47734481054874 1414.7570148372051,376.4330805505132 1418.7378107493448,374.4707218761006C1423.6236641783898,372.0622093399124 1428.0600816253648,368.7977237363207 1432.3902480657684,364.4247364371532C1436.4717006945834,360.3029224714298 1440.272006971925,355.12666216643305 1442.8384813542875,350.1935741881624C1445.0569650510797,345.929368268226 1447.8003975087927,338.8538661995518 1448.9349979269828,334.47023625777535C1450.069598345173,330.08660631599895 1451.4344844783468,323.125 1451.9680782229243,319.0C1452.5016719675018,314.875 1452.9521427173981,306.1947638118566 1452.9691243338052,299.71058624857017C1452.9861059502125,293.2264086852838 1452.5204147615698,283.62021465171006 1451.9342550257106,278.36348839618415C1451.3480952898515,273.1067621406582 1450.0007253039319,265.3619983288016 1448.9400995014448,261.15290214761393C1447.8794736989578,256.9438059664263 1445.236573029266,249.88701409187814 1443.06698690213,245.47114242639583C1440.31955196784,239.87914498165588 1437.2110622529206,235.53106225292035 1432.8252742595032,231.14527425950317C1428.6315226785673,226.95152267856724 1424.18547961444,223.7230075683319 1419.5141318331075,221.4793254960154C1415.6563593248984,219.62640950240583 1409.35,217.60201099756958 1405.5,216.98066215193484C1401.613024640048,216.35334587844994 1395.6722194194465,216.1470101037446 1392.1414046296886,216.516692029644C1388.6441771760174,216.88285730801877 1383.2805034295886,218.04336653550078 1380.222129637625,219.09560142404845C1377.1637558456612,220.14783631259613 1372.5488576956247,222.36440252342834 1369.9668004153218,224.0213041147867C1367.3847431350187,225.678205706145 1362.816910420476,229.61373565860097 1359.8160610496711,232.76692623135546C1356.8152116788665,235.92011680410997 1353.1054774609502,240.64729537374018 1351.572207232079,243.2717674972004C1350.0389370032083,245.8962396206606 1347.7250213889727,251.0899017502545 1346.4301725337777,254.81323889629797C1345.1353236785826,258.53657604234144 1343.3856335556322,265.83928066860125 1342.5419722605545,271.0414713990976C1341.6971968378014,276.25053207218787 1341.006235961457,286.69522062601214 1341.0040213165703,294.2894137514307C1341.0018095924565,301.87359131471754 1341.4795852384302,312.3797853482916 1342.0657449742894,317.63651160381744C1342.6519047101488,322.8932378593433 1344.001567335111,330.63800167119945 1345.0649952519834,334.84709785238675C1346.1284231688558,339.05619403357406 1348.6469291801875,345.875 1350.6616752771647,350.0C1353.2747550109389,355.350030913568 1356.3565922854623,359.5286022047258 1361.4124249994707,364.5766210693257C1365.6235967037162,368.7812843577687 1370.7559676719877,372.74785962760546 1374.0587963254807,374.3504242618524C1377.1161343044953,375.833874429613 1382.5161343044952,377.6761200232552 1386.0587963254807,378.444303358835C1389.6014583464664,379.21248669441485 1394.075,379.8741688458581 1396.0,379.91470813982005zM490.63491369792973,377.4496591708174C495.10911623179106,377.205659645562 501.63411623179104,376.1165823162427 505.13491369792973,375.0294873278858C508.63571116406837,373.94239233952896 514.370711404011,371.35353701369957 517.8793586755799,369.2764754927094C521.3880059471488,367.1994139717192 527.0685696576699,362.46921622932956 530.5028335878487,358.76492495406563C534.1776632460774,354.8011528859275 538.216077011515,349.04052788553236 540.3173576563743,344.76492495406563C542.2810819638845,340.7692162293295 544.800198260991,334.18030726217324 545.9153938721665,330.1229050270517C547.030589483342,326.0655027919301 548.4619225426732,317.9655027919301 549.0961340040135,312.1229050270517C549.7328051928423,306.2576473148167 549.9700057160662,297.17535033632345 549.62575683308,291.84389486807163C549.2828379277264,286.53303704551104 548.3561402165657,278.883037045511 547.5664285860564,274.84389486807163C546.776716955547,270.80475269063226 545.2121882096417,264.87397068110636 544.0896980396001,261.6643792913475C542.9672078695586,258.45478790158853 540.6270441571195,253.34377660663145 538.8893342341798,250.30657641366506C537.1516243112402,247.26937622069866 533.1431908817057,242.0204055395923 529.9817043907696,238.6421971223176C526.8202178998334,235.26398870504292 521.3684990292546,230.7980624931113 517.8667735672611,228.71791665135842C514.3650481052675,226.63777080960554 508.35,223.95281297262167 504.5,222.7513436802831C499.222175245428,221.10429319379932 495.0397496493886,220.5738165014545 487.5,220.59515379410752C480.17269541522546,220.61588987283076 475.6180147447381,221.19908112262993 470.45847463747316,222.77718788028488C466.5856356880834,223.96174177274048 460.54545209553515,226.7868604337188 457.03584443181035,229.05522934912563C453.5262367680856,231.32359826453248 448.3699231812227,235.56749291053006 445.5773697943372,238.48610634023134C442.78481640745173,241.40471976993268 438.9802680882246,246.31812601639416 437.1228179738324,249.4047868879236C435.26536785944023,252.491447759453 432.67543081563855,257.96527956927144 431.36740232093973,261.568857576409C430.05937382624097,265.1724355835466 428.3166057380164,271.9775792697077 427.4945843471073,276.69139910121146C426.6569055066135,281.4950053995637 426.0,291.3001681550953 426.0,299.0000000000002C426.0,306.6998318449062 426.6569055066135,316.50499460043625 427.49458434710755,321.3086008987892C428.3166057380167,326.0224207302931 430.0593738262412,332.8275644164539 431.3674023209399,336.43114242359104C432.6754308156386,340.0347204307282 435.2653678594402,345.5085522405464 437.1228179738324,348.59521311207607C438.9802680882246,351.68187398360567 442.7848164074515,356.59528023006703 445.5773697943366,359.5138936597681C448.36992318122174,362.4325070894691 453.4608368744744,366.63413174407424 456.89051133489806,368.8508373366684C460.3201857953217,371.06754292926263 465.35389304069275,373.6211043776796 468.0765274357226,374.5254183331507C470.7991618307524,375.4297322886217 475.15824813749975,376.55745108284844 477.76338589516115,377.03146009809905C480.3685236528225,377.50546911334965 486.16071116406835,377.6936586960729 490.63491369792973,377.4496591708174z"/></svg>